HIERARCHY
ROOT Hips
{
	OFFSET -3.958830 18.904000 13.208200
	CHANNELS 6 Xposition Yposition Zposition Zrotation Yrotation Xrotation 
	JOINT LHipJoint
	{
		OFFSET 0.000000 0.000000 0.000000
		CHANNELS 3 Zrotation Yrotation Xrotation
		JOINT LeftUpLeg
		{
			OFFSET 1.800000 -1.400000 0.085000
			CHANNELS 3 Zrotation Yrotation Xrotation
			JOINT LeftLeg
			{
				OFFSET 2.215000 -6.000000 0.000000
				CHANNELS 3 Zrotation Yrotation Xrotation
				JOINT LeftFoot
				{
					OFFSET 2.500000 -6.900000 0.000000
					CHANNELS 3 Zrotation Yrotation Xrotation
					JOINT LeftToeBase
					{
						OFFSET 0.200000 -0.500000 1.950000
						CHANNELS 3 Zrotation Yrotation Xrotation
						End Site
						{
							OFFSET 0.000000 0.000000 0.000000
						}
					}
				}
			}
		}
	}
	JOINT RHipJoint
	{
		OFFSET 0.000000 0.000000 0.000000
		CHANNELS 3 Zrotation Yrotation Xrotation
		JOINT RightUpLeg
		{
			OFFSET -1.800000 -1.400000 0.085000
			CHANNELS 3 Zrotation Yrotation Xrotation
			JOINT RightLeg
			{
				OFFSET -2.215000 -6.000000 0.000000
				CHANNELS 3 Zrotation Yrotation Xrotation
				JOINT RightFoot
				{
					OFFSET -2.500000 -6.900000 0.000000
					CHANNELS 3 Zrotation Yrotation Xrotation
					JOINT RightToeBase
					{
						OFFSET -0.200000 -0.500000 1.950000
						CHANNELS 3 Zrotation Yrotation Xrotation
						End Site
						{
							OFFSET 0.000000 0.000000 0.000000
						}
					}
				}
			}
		}
	}
	JOINT LowerBack
	{
		OFFSET 0.000000 0.000000 0.000000
		CHANNELS 3 Zrotation Yrotation Xrotation
		JOINT Spine
		{
			OFFSET -0.087000 1.940000 -0.288900
			CHANNELS 3 Zrotation Yrotation Xrotation
			JOINT Spine1
			{
				OFFSET 0.000000 1.950000 0.060000
				CHANNELS 3 Zrotation Yrotation Xrotation
				JOINT Neck
				{
					OFFSET 0.000000 0.000000 0.000000
					CHANNELS 3 Zrotation Yrotation Xrotation
					JOINT Neck1
					{
						OFFSET 0.000000 1.600000 0.340000
						CHANNELS 3 Zrotation Yrotation Xrotation
						JOINT Head
						{
							OFFSET 0.000000 1.667000 -0.240000
							CHANNELS 3 Zrotation Yrotation Xrotation
							End Site
							{
								OFFSET 0.000000 0.000000 0.000000
							}
						}
					}
				}
				JOINT LeftShoulder
				{
					OFFSET 0.000000 0.000000 0.000000
					CHANNELS 3 Zrotation Yrotation Xrotation
					JOINT LeftArm
					{
						OFFSET 2.700000 1.550000 -0.730000
						CHANNELS 3 Zrotation Yrotation Xrotation
						JOINT LeftForeArm
						{
							OFFSET 5.450000 0.000000 0.000000
							CHANNELS 3 Zrotation Yrotation Xrotation
							JOINT LeftHand
							{
								OFFSET 3.450000 0.000000 0.000000
								CHANNELS 3 Zrotation Yrotation Xrotation
								JOINT LeftHandIndex1
								{
									OFFSET 0.750000 0.000000 0.000000
									CHANNELS 3 Zrotation Yrotation Xrotation
									End Site
									{
										OFFSET 0.000000 0.000000 0.000000
									}
								}
							}
						}
					}
				}
				JOINT RightShoulder
				{
					OFFSET 0.000000 0.000000 0.000000
					CHANNELS 3 Zrotation Yrotation Xrotation
					JOINT RightArm
					{
						OFFSET -2.700000 1.550000 -0.730000
						CHANNELS 3 Zrotation Yrotation Xrotation
						JOINT RightForeArm
						{
							OFFSET -5.450000 0.000000 0.000000
							CHANNELS 3 Zrotation Yrotation Xrotation
							JOINT RightHand
							{
								OFFSET -3.450000 0.000000 0.000000
								CHANNELS 3 Zrotation Yrotation Xrotation
								JOINT RightHandIndex1
								{
									OFFSET -0.750000 0.000000 0.000000
									CHANNELS 3 Zrotation Yrotation Xrotation
									End Site
									{
										OFFSET 0.000000 0.000000 0.000000
									}
								}
							}
						}
					}
				}
			}
		}
	}
}
MOTION
Frames: 7
Frame Time: 0.016667
0.193190 16.532670 -7.236770 -6.230309 -19.142245 -0.251581 -15.388335 12.541286 4.934872 9.879344 -6.338884 -41.727467 -2.607492 9.971386 44.699278 0.227830 7.680000 1.610073 0.289630 0.132180 0.327500 18.124336 -9.543690 3.296988 -0.430210 7.358307 -20.409254 15.631035 -11.609512 36.443464 -0.875612 -5.910388 2.312737 -0.028240 -0.190350 0.032770 -2.943230 -2.976560 -9.186978 10.628289 1.291304 30.433005 0.589438 7.055422 -4.967004 2.493731 -4.086714 -13.219081 -12.677882 7.081731 51.626442 -2.801820 5.595690 -10.286350 -33.869314 -14.229077 4.230082 -43.389809 4.880694 -9.995303 8.460817 -22.028466 -3.027799 -3.385153 2.794199 0.602390 -0.198790 0.237380 -0.008490 29.731710 21.796905 9.172962 49.026197 -0.889713 -6.774946 0.761418 7.634222 -0.013187 2.474937 -1.042646 -0.067060 0.109090 -0.042350 -0.239170 
0.188530 16.526040 -7.229400 -6.132245 -19.836470 -0.748530 -15.408963 12.501823 4.987222 10.028415 -6.398134 -42.095195 -2.726943 10.334381 45.817828 0.274001 7.934351 1.521180 0.293850 0.136570 0.335840 18.116059 -9.523550 3.258785 -0.508455 7.334216 -19.863037 15.571138 -11.923241 37.440154 -0.920559 -6.104455 2.251207 -0.026020 -0.192950 0.033640 -2.903962 -2.988423 -9.208270 10.373585 1.599606 30.629165 0.916233 7.335228 -4.953336 2.405388 -4.059163 -13.074067 -12.756029 7.110705 52.238056 -2.722950 5.510080 -10.268170 -33.778239 -13.783516 4.061880 -43.364822 5.038837 -10.205893 8.332100 -22.698671 -3.089945 -3.386909 2.782232 0.601970 -0.198920 0.241000 -0.012750 29.831911 21.433746 9.081948 48.785631 -1.050592 -6.824211 0.969271 7.749224 -0.018563 2.471841 -1.032945 -0.063760 0.112380 -0.042560 -0.240340 
0.185790 16.512140 -7.217550 -6.141715 -21.161186 -1.525816 -15.441495 12.412412 5.102617 10.135905 -6.653002 -43.239381 -1.778823 10.640130 48.965462 0.370351 8.482172 1.335885 0.294530 0.136750 0.334980 18.114462 -9.465159 3.181659 -0.775825 7.229730 -18.891532 15.914047 -12.485423 38.443342 -0.985203 -6.372953 2.167637 -0.026070 -0.187870 0.032760 -2.871605 -3.020487 -9.239937 10.356984 1.870721 30.976359 1.299076 7.723593 -4.966470 2.267607 -4.496292 -12.830675 -13.927297 7.760233 52.772406 -2.437630 5.473500 -10.406250 -33.397336 -12.691111 3.728370 -43.983482 5.523605 -10.892817 8.449573 -24.551050 -3.373808 -3.382777 2.763534 0.608310 -0.201160 0.241180 -0.017690 29.728528 20.777648 8.965703 48.412171 -1.392863 -7.112996 1.320508 8.492848 -0.057469 2.456336 -1.015915 -0.064570 0.123090 -0.032970 -0.239990 
0.193130 16.503710 -7.185680 -6.721979 -22.546970 -2.476418 -15.427400 12.376095 5.164365 10.571640 -6.677878 -43.783775 -0.583326 10.793253 52.228220 0.455296 9.026191 1.145194 0.316580 0.154740 0.343080 18.142536 -9.481047 3.097184 -0.551600 6.854719 -17.055950 16.074721 -12.797923 38.663411 -1.042635 -6.506701 2.123321 -0.013410 -0.199850 0.033250 -2.944557 -2.986952 -9.234432 11.715935 1.629536 31.296464 0.932342 8.105569 -5.063321 2.267968 -4.988729 -12.686795 -15.504463 8.711069 54.359889 -1.723630 5.204440 -10.574630 -33.267856 -11.390751 3.307721 -44.352484 6.262170 -11.584925 8.449072 -26.506063 -3.657085 -3.357754 2.753590 0.635370 -0.220230 0.254720 -0.017200 29.445362 19.900863 8.892741 48.154632 -2.075898 -7.513989 2.080832 9.471734 -0.081844 2.432242 -1.002913 -0.064390 0.129030 -0.031460 -0.244830 
0.186620 16.492690 -7.148760 -6.934029 -23.204286 -3.493657 -15.408861 12.335135 5.178481 10.628404 -6.815054 -43.902612 0.342653 10.813273 54.558760 0.526561 9.387545 1.021706 0.336940 0.176320 0.353950 18.166822 -9.509370 3.046881 -0.987211 6.561891 -15.755901 16.849818 -13.518084 39.192880 -1.121756 -6.774413 2.032567 -0.000300 -0.209580 0.035150 -3.017566 -2.910547 -9.219690 12.549012 1.502586 31.110560 0.770878 8.184393 -4.805719 2.168365 -5.166003 -12.490859 -16.302658 9.343050 55.838329 -1.199960 5.081390 -10.406450 -32.678298 -10.336009 3.085264 -44.659988 6.735911 -12.138864 8.268500 -28.261526 -3.865657 -3.342429 2.748865 0.645730 -0.230720 0.266180 -0.015830 28.887557 18.960196 8.627789 48.362762 -2.257368 -7.667658 2.750777 9.707000 -0.084349 2.428835 -0.995756 -0.058570 0.130300 -0.036080 -0.245490 
0.185540 16.489470 -7.107550 -6.778100 -24.029596 -4.773498 -15.394135 12.333033 5.151229 10.306082 -6.962071 -43.666850 1.387070 10.707952 56.682747 0.602787 9.669545 0.922478 0.370350 0.218570 0.374250 18.175401 -9.551098 3.007696 -2.052283 6.360282 -14.586799 17.843844 -14.451948 40.009372 -1.227217 -7.121093 1.913674 0.015320 -0.234250 0.041810 -3.052617 -2.853145 -9.198103 12.944343 1.617110 30.996149 0.740999 8.335880 -4.453077 2.132563 -5.204179 -12.500045 -16.836821 9.931691 57.854874 -0.868730 5.097690 -10.475270 -32.024974 -9.578300 3.031565 -44.929075 7.336524 -12.694702 7.603968 -29.956986 -3.947821 -3.313304 2.753798 0.658040 -0.249550 0.294690 -0.010470 28.208305 18.332207 8.481096 48.526530 -2.371876 -7.696008 3.675768 9.614974 -0.057380 2.433500 -0.988628 -0.038550 0.125470 -0.052060 -0.243000 
0.181290 16.480830 -7.068430 -6.457522 -24.663183 -5.974158 -15.390331 12.308060 5.144629 10.066368 -7.100606 -43.539836 1.879564 10.867299 58.481554 0.674607 9.962422 0.826778 0.384760 0.241480 0.384350 18.179121 -9.574063 2.967856 -3.041220 6.200400 -13.578803 18.646560 -15.303608 40.815999 -1.311712 -7.436205 1.815341 0.025100 -0.244590 0.036560 -3.067954 -2.802417 -9.183284 13.053908 1.880898 30.801185 0.918910 8.509653 -4.147822 2.030928 -5.278421 -12.353302 -17.297748 10.396921 59.146523 -0.685970 5.192400 -10.582470 -31.272821 -8.565511 2.893346 -45.321649 7.937982 -13.462206 7.183346 -32.407612 -4.160158 -3.293628 2.743602 0.665090 -0.258670 0.307110 -0.010720 27.566657 17.478073 8.242513 48.666174 -2.475866 -7.714847 4.527183 9.405109 -0.038450 2.437501 -0.971181 -0.033390 0.133000 -0.057810 -0.243130 
